<svg xmlns="http://www.w3.org/2000/svg" xmlns:svg="http://www.w3.org/2000/svg" xmlns:xlink="http://www.w3.org/1999/xlink" id="svg2" width="24" height="24" version="1.1" viewBox="0 0 24 24"><defs id="defs4"><marker id="marker4829" orient="auto" refX="0" refY="0" style="overflow:visible"><path id="path4827" d="M -2.5,-1.0 C -2.5,1.7600000 -4.7400000,4.0 -7.5,4.0 C -10.260000,4.0 -12.5,1.7600000 -12.5,-1.0 C -12.5,-3.7600000 -10.260000,-6.0 -7.5,-6.0 C -4.7400000,-6.0 -2.5,-3.7600000 -2.5,-1.0 z" transform="scale(0.4) translate(7.4, 1)" style="fill-rule:evenodd;stroke:#ff7f00;stroke-width:1pt;stroke-opacity:1;fill:#ff7f00;fill-opacity:.4976526"/></marker><marker id="DotM" orient="auto" refX="0" refY="0" style="overflow:visible"><path id="path4609" d="M -2.5,-1.0 C -2.5,1.7600000 -4.7400000,4.0 -7.5,4.0 C -10.260000,4.0 -12.5,1.7600000 -12.5,-1.0 C -12.5,-3.7600000 -10.260000,-6.0 -7.5,-6.0 C -4.7400000,-6.0 -2.5,-3.7600000 -2.5,-1.0 z" transform="scale(0.4) translate(7.4, 1)" style="fill-rule:evenodd;stroke:#ff7f00;stroke-width:1pt;stroke-opacity:1;fill:#ff7f00;fill-opacity:.4976526"/></marker><linearGradient id="linearGradient4185"><stop style="stop-color:#fff;stop-opacity:1" id="stop4187" offset="0"/><stop style="stop-color:#7f7f7f;stop-opacity:1" id="stop4189" offset="1"/></linearGradient><linearGradient id="linearGradient4191" x1="4" x2="20" y1="1031.362" y2="1050.362" gradientUnits="userSpaceOnUse" xlink:href="#linearGradient4185"/></defs><metadata id="metadata7"/><g id="layer1" transform="translate(0,-1028.3623)"><rect style="fill:#7f7f7f;fill-opacity:.24888892;stroke:#7f7f7f;stroke-width:1;stroke-miterlimit:4;stroke-dasharray:none;stroke-dashoffset:.5;stroke-opacity:1" id="rect826" width="17" height="17" x="3.5" y="1031.862"/><path style="fill:#ff7f00;fill-opacity:.4976526;stroke:#ff7f00;stroke-width:1.0294522;stroke-linecap:butt;stroke-linejoin:round;stroke-miterlimit:4;stroke-dasharray:none;stroke-opacity:1" id="path4543" d="m 3.5,1048.8342 v -16.9719 h 17 z"/><circle style="fill:#ff7f00;fill-opacity:1;stroke:#ff7f00;stroke-width:.5;stroke-linejoin:round;stroke-miterlimit:4;stroke-dasharray:0,5.5;stroke-dashoffset:0;stroke-opacity:1" id="path4927" cx="20.5" cy="1031.862" r="2"/><circle style="fill:#ff7f00;fill-opacity:1;stroke:#ff7f00;stroke-width:.5;stroke-linejoin:round;stroke-miterlimit:4;stroke-dasharray:0,5.5;stroke-dashoffset:0;stroke-opacity:1" id="path4927-9" cx="3.5" cy="1048.862" r="2"/><circle style="fill:#ff7f00;fill-opacity:1;stroke:#ff7f00;stroke-width:.5;stroke-linejoin:round;stroke-miterlimit:4;stroke-dasharray:0,5.5;stroke-dashoffset:0;stroke-opacity:1" id="path4927-9-1" cx="3.5" cy="1031.862" r="2"/></g></svg>