<svg xmlns="http://www.w3.org/2000/svg" xmlns:svg="http://www.w3.org/2000/svg" id="svg58" width="32" height="32" x="0" y="0" version="1.1" viewBox="0 0 32 32"><metadata id="metadata64"/><path id="path47" d="m 6,4 h 20 c 1.105,0 2,0.895 2,2 v 20 c 0,1.105 -0.895,2 -2,2 H 6 C 4.895,28 4,27.105 4,26 V 6 C 4,4.895 4.895,4 6,4 Z" style="fill:#fff"/><path id="path49" d="m 26,3 c 1.657,0 3,1.343 3,3 v 20 c 0,1.657 -1.343,3 -3,3 H 6 C 4.343,29 3,27.657 3,26 V 6 C 3,4.343 4.343,3 6,3 Z m 0,1 H 6 C 4.895,4 4,4.895 4,6 v 20 c 0,1.105 0.895,2 2,2 h 20 c 1.105,0 2,-0.895 2,-2 V 6 C 28,4.895 27.105,4 26,4 Z" style="fill:#3f3f3f;fill-opacity:1"/><text id="text55" x="16" y="16" style="fill:#3f3f3f;fill-opacity:1"><tspan style="font-size:24px;font-family:HelveticaNeue-Bold;fill:#3f3f3f;fill-opacity:1" id="tspan53" x="9.328" y="24.5" font-size="24">?</tspan></text></svg>