<svg xmlns="http://www.w3.org/2000/svg" xmlns:svg="http://www.w3.org/2000/svg" id="svg168" width="16" height="16" x="0" y="0" version="1.1" viewBox="0 0 16 16"><metadata id="metadata174"/><g style="fill:#3f3f3f;fill-opacity:1" id="Layer_1"><path style="fill:#3f3f3f;fill-opacity:1" id="path159" fill-opacity="0" stroke="#000" stroke-width="1" d="M4.5,13.5 L4.5,13.5"/><path style="fill:#3f3f3f;fill-opacity:1" id="path161" fill-opacity="0" stroke="#000" stroke-width="1" d="M12.5,5.5 L12.5,5.5"/><path style="fill:#3f3f3f;fill-opacity:1" id="path163" d="M 7.9792027,1.9826659 C 11.979203,1.9826659 15,7 15,8 15,9 12.020798,13.996537 8.0207972,13.996537 4.0207972,13.996537 1,9 1,8 1,7 3.9792027,1.9826659 7.9792027,1.9826659 Z m 0.041595,2.0190657 C 5.0207973,4.0017316 2,7 2,8 2,9 5,11.998268 8,11.998268 11,11.998268 14,9 14,8 14,7 11.020797,4.0017316 8.0207977,4.0017316 Z"/><path style="fill:#3f3f3f;fill-opacity:1;stroke-width:1" id="path165" d="M 7.9999997,11 C 6.3549468,11 5.0225284,9.6578875 5.0225284,8.0008659 c 0,-1.6570216 1.3324184,-2.9991343 2.9774713,-2.9991343 1.6450528,0 2.9774713,1.3421127 2.9774713,2.9991343 C 10.977471,9.6578875 9.6450525,11 7.9999997,11 Z"/></g></svg>