<svg xmlns="http://www.w3.org/2000/svg" xmlns:svg="http://www.w3.org/2000/svg" id="svg86" width="16" height="16" x="0" y="0" version="1.1" viewBox="0 0 16 16"><metadata id="metadata92"/><path id="path159" d="m 4.4792023,13.498268 v 0" style="fill:#3f3f3f;fill-opacity:1;stroke:#000;stroke-width:1"/><path id="path161" d="m 12.479202,5.4982684 v 0" style="fill:#3f3f3f;fill-opacity:1;stroke:#000;stroke-width:1"/><path id="path163" d="m 7.958405,1.9809343 c 4,0 7.020797,5.0173341 7.020797,6.0173341 0,1 -2.979202,5.9965366 -6.9792025,5.9965366 -4,0 -7.0207972,-4.9965366 -7.0207972,-5.9965366 0,-1 2.9792027,-6.0173341 6.9792027,-6.0173341 z m 0.1157836,8.0283397 c -3.0000004,0 -6.0949863,-3.0110056 -6.0949863,-2.0110056 0,1 3.0247295,2.8112506 6.0247295,2.8112506 3.0000002,0 5.9752702,-1.8112506 5.9752702,-2.8112506 0,-1 -2.905014,2.0110056 -5.9050134,2.0110056 z" style="fill:#3f3f3f;fill-opacity:1"/></svg>