<svg xmlns="http://www.w3.org/2000/svg" xmlns:svg="http://www.w3.org/2000/svg" id="svg88" width="16" height="16" x="0" y="0" version="1.1" viewBox="0 0 16 16"><metadata id="metadata94"/><path id="path4576" d="M 3.5039062 7 C 2.7516135 7 2 7.6673177 2 8.3339844 L 2 13.666016 C 2 14.332681 2.7516135 15 3.5039062 15 L 12.53125 15 C 13.283543 15 14.037109 14.332681 14.037109 13.666016 L 14.037109 8.3339844 C 14.037109 7.6673177 13.283543 7 12.53125 7 L 3.5039062 7 z M 8 9 A 2 2 0 0 1 10 11 A 2 2 0 0 1 8 13 A 2 2 0 0 1 6 11 A 2 2 0 0 1 8 9 z" style="fill:#3f3f3f;fill-opacity:1;stroke:none;stroke-width:1;stroke-linecap:butt;stroke-linejoin:miter;stroke-miterlimit:4;stroke-dasharray:none;stroke-dashoffset:0;stroke-opacity:1"/><path id="path4578" d="M 7.5309663,3.9258115 9.1399252,2.7378488 c 0,0 2.1871678,-2.05435981 4.1671038,0.6272371 1.979939,2.6815969 -0.603216,4.1996366 -0.603216,4.1996366 L 11.094855,8.752685" style="fill:none;fill-opacity:1;stroke:#3f3f3f;stroke-width:2;stroke-linecap:butt;stroke-linejoin:miter;stroke-miterlimit:4;stroke-dasharray:none;stroke-opacity:1"/></svg>