<svg xmlns="http://www.w3.org/2000/svg" xmlns:svg="http://www.w3.org/2000/svg" id="svg88" width="12" height="12" x="0" y="0" version="1.1" viewBox="0 0 12 12"><metadata id="metadata94"/><path id="path4576" d="M 2.2493914,5 C 1.6244132,5 0.99999999,5.5004885 0.99999999,6.000488 V 9.9995119 C 0.99999999,10.499512 1.6244132,11 2.2493914,11 H 9.748986 C 10.373964,11 11,10.499512 11,9.9995119 V 6.000488 C 11,5.5004885 10.373964,5 9.748986,5 Z M 5.9845855,6.5 A 1.6615284,1.5 0 0 1 7.646114,8 1.6615284,1.5 0 0 1 5.9845855,9.5 1.6615284,1.5 0 0 1 4.323057,8 1.6615284,1.5 0 0 1 5.9845855,6.5 Z" style="fill:#3f3f3f;fill-opacity:1;stroke:none;stroke-width:.393;stroke-linecap:round;stroke-linejoin:miter;stroke-miterlimit:4;stroke-dasharray:none;stroke-dashoffset:15.93;stroke-opacity:1"/><path id="path4578" d="m 3.0220971,6.47978 v -2 c 0,0 -0.353553,-2.97978 2.97978,-2.97978 3.333334,0 3.02022,2.97978 3.02022,2.97978 v 2" style="fill:none;fill-opacity:1;stroke:#3f3f3f;stroke-width:1;stroke-linecap:butt;stroke-linejoin:miter;stroke-miterlimit:4;stroke-dasharray:none;stroke-opacity:1"/></svg>