<svg xmlns="http://www.w3.org/2000/svg" xmlns:svg="http://www.w3.org/2000/svg" id="svg94" width="16" height="16" x="0" y="0" version="1.1" viewBox="0 0 16 16"><metadata id="metadata100"/><path style="fill:#3f3f3f;fill-opacity:1;stroke:none;stroke-width:2;stroke-linecap:butt;stroke-linejoin:round;stroke-miterlimit:4;stroke-dasharray:none;stroke-dashoffset:0;stroke-opacity:1;paint-order:normal" id="path2643" d="M 8 2 A 6 6 0 0 0 2.3945312 5.8671875 L 4.2753906 6.5546875 A 4 4 0 0 1 8 4 A 4 4 0 0 1 11.576172 6.2109375 L 13.359375 5.3203125 A 6 6 0 0 0 8 2 z M 11.740234 9.4023438 A 4 4 0 0 1 8 12 A 4 4 0 0 1 4.4121094 9.7617188 L 2.6308594 10.660156 A 6 6 0 0 0 8 14 A 6 6 0 0 0 13.615234 10.105469 L 11.740234 9.4023438 z"/><ellipse style="fill:none;fill-opacity:.24888892;stroke:none;stroke-width:1.00000024;stroke-miterlimit:4;stroke-dasharray:none;stroke-dashoffset:10;stroke-opacity:1" id="path1647" cx="7.942" cy="8.007" rx="6.585" ry="6.596"/><path style="fill:#3f3f3f;fill-opacity:1;stroke:none;stroke-width:.99999994px;stroke-linecap:butt;stroke-linejoin:miter;stroke-opacity:1" id="path1668" d="M 10.466309,9.7511009 14.280382,10.95644 13.27735,7.4932155 Z"/><path style="fill:#3f3f3f;fill-opacity:1;stroke:none;stroke-width:.99999994px;stroke-linecap:butt;stroke-linejoin:miter;stroke-opacity:1" id="path1668-6" d="M 5.4782182,6.3492501 1.6641452,5.143911 2.6671772,8.6071355 Z"/></svg>