<svg xmlns="http://www.w3.org/2000/svg" xmlns:svg="http://www.w3.org/2000/svg" id="svg88" width="24" height="24" x="0" y="0" version="1.1" viewBox="0 0 24 24"><metadata id="metadata94"/><rect style="fill:#7f7f7f;fill-opacity:.24705882;stroke:#7f7f7f;stroke-width:1;stroke-miterlimit:4;stroke-dasharray:none;stroke-dashoffset:10;stroke-opacity:1" id="rect826-3" width="19" height="19" x="2.5" y="2.5"/><g id="g1980" transform="translate(49,1)"><rect id="rect1828" width="3.5" height="3.5" x="-46" y="2" style="opacity:.2;fill:#000;stroke:none;stroke-width:.875;stroke-linecap:round;stroke-miterlimit:4;stroke-dasharray:none;stroke-dashoffset:10"/><rect style="opacity:.2;fill:#000;stroke:none;stroke-width:1.375;stroke-linecap:round;stroke-miterlimit:4;stroke-dasharray:none;stroke-dashoffset:10" id="rect1828-6" width="5.5" height="5.5" x="-42.5" y="5.5"/><rect style="opacity:.2;fill:#000;stroke:none;stroke-width:1.09687;stroke-linecap:round;stroke-miterlimit:4;stroke-dasharray:none;stroke-dashoffset:10" id="rect1828-6-2-8" width="5.5" height="3.5" x="-37" y="2"/><rect id="rect1828-6-2-8-1" width="3.5" height="5.5" x="-46" y="11" style="opacity:.2;fill:#000;stroke:none;stroke-width:1.09687;stroke-linecap:round;stroke-miterlimit:4;stroke-dasharray:none;stroke-dashoffset:10"/><rect style="opacity:.2;fill:#000;stroke:none;stroke-width:1.09687;stroke-linecap:round;stroke-miterlimit:4;stroke-dasharray:none;stroke-dashoffset:10" id="rect1828-6-2-8-1-9" width="5.5" height="3.5" x="-42.5" y="16.5"/><rect style="opacity:.2;fill:#000;stroke:none;stroke-width:1.09687;stroke-linecap:round;stroke-miterlimit:4;stroke-dasharray:none;stroke-dashoffset:10" id="rect1828-6-2-8-1-9-7-6" width="3.5" height="5.5" x="-31.5" y="5.5"/><rect id="rect1968" width="5.5" height="5.5" x="-37" y="11" style="opacity:.2;fill:#000;stroke:none;stroke-width:1.375;stroke-linecap:round;stroke-miterlimit:4;stroke-dasharray:none;stroke-dashoffset:10"/><rect style="opacity:.2;fill:#000;stroke:none;stroke-width:.875;stroke-linecap:round;stroke-miterlimit:4;stroke-dasharray:none;stroke-dashoffset:10" id="rect1970" width="3.5" height="3.5" x="-31.5" y="16.5"/></g><path style="fill:none;stroke:#006dd0;stroke-width:2;stroke-linecap:butt;stroke-linejoin:miter;stroke-miterlimit:4;stroke-dasharray:none;stroke-opacity:1" id="path8651-7-5" d="m 6,17 h 9"/><path style="fill:none;stroke:#006dd0;stroke-width:2;stroke-linecap:butt;stroke-linejoin:miter;stroke-miterlimit:4;stroke-dasharray:none;stroke-opacity:1" id="path8651-2" d="M 7,8.9999998 V 18"/><path style="fill:#006dd0;fill-opacity:1;stroke:none;stroke-width:1px;stroke-linecap:butt;stroke-linejoin:miter;stroke-opacity:1" id="path16124" d="m 4,8.9999998 h 6 L 7,4 Z"/><path style="fill:#006dd0;fill-opacity:1;stroke:none;stroke-width:1px;stroke-linecap:butt;stroke-linejoin:miter;stroke-opacity:1" id="path16124-3" d="m 15,14 v 6 l 5,-3 z"/><path style="fill:#006dd0;fill-opacity:1;stroke:none;stroke-width:1;stroke-linecap:butt;stroke-linejoin:miter;stroke-miterlimit:4;stroke-dasharray:none;stroke-dashoffset:10;stroke-opacity:1" id="path4576" d="M 15.25,5 C 14.625024,5 14,5.6666677 14,6.3333333 V 11.666666 C 14,12.33333 14.625024,13 15.25,13 h 7.5 C 23.374977,13 24,12.33333 24,11.666666 V 6.3333333 C 24,5.6666677 23.374977,5 22.75,5 Z"/><path style="fill:none;fill-opacity:1;stroke:#006dd0;stroke-width:1.99999976;stroke-linecap:butt;stroke-linejoin:miter;stroke-miterlimit:4;stroke-dasharray:none;stroke-opacity:1" id="path4578" d="M 16.474161,5.5255608 V 3.715021 c 0,0 -0.294554,-2.6975056 2.482535,-2.6975056 2.777091,0 2.516227,2.6975056 2.516227,2.6975056 v 1.8105398"/><path id="path4927-9-1-5" d="M 21,9.0000003 A 2,2.0000002 0 0 1 19,11 2,2.0000002 0 0 1 17,9.0000003 2,2.0000002 0 0 1 19,7.0000001 2,2.0000002 0 0 1 21,9.0000003 Z" style="fill:#505050;fill-opacity:1;stroke:none;stroke-width:.5;stroke-linejoin:round;stroke-miterlimit:4;stroke-dasharray:none;stroke-dashoffset:0;stroke-opacity:1"/></svg>