<svg xmlns="http://www.w3.org/2000/svg" xmlns:svg="http://www.w3.org/2000/svg" id="svg88" width="24" height="24" x="0" y="0" version="1.1" viewBox="0 0 24 24"><metadata id="metadata94"/><rect style="fill:#7f7f7f;fill-opacity:.24705882;stroke:#7f7f7f;stroke-width:1;stroke-miterlimit:4;stroke-dasharray:none;stroke-dashoffset:10;stroke-opacity:1" id="rect826-3" width="19" height="19" x="2.5" y="2.5"/><g id="g1980" transform="translate(49,1)"><rect style="opacity:.2;fill:#000;stroke:none;stroke-width:.875;stroke-linecap:round;stroke-miterlimit:4;stroke-dasharray:none;stroke-dashoffset:10" id="rect1828" width="3.5" height="3.5" x="-46" y="2"/><rect id="rect1828-6" width="5.5" height="5.5" x="-42.5" y="5.5" style="opacity:.2;fill:#000;stroke:none;stroke-width:1.375;stroke-linecap:round;stroke-miterlimit:4;stroke-dasharray:none;stroke-dashoffset:10"/><rect id="rect1828-6-2-8" width="5.5" height="3.5" x="-37" y="2" style="opacity:.2;fill:#000;stroke:none;stroke-width:1.09687;stroke-linecap:round;stroke-miterlimit:4;stroke-dasharray:none;stroke-dashoffset:10"/><rect style="opacity:.2;fill:#000;stroke:none;stroke-width:1.09687;stroke-linecap:round;stroke-miterlimit:4;stroke-dasharray:none;stroke-dashoffset:10" id="rect1828-6-2-8-1" width="3.5" height="5.5" x="-46" y="11"/><rect id="rect1828-6-2-8-1-9" width="5.5" height="3.5" x="-42.5" y="16.5" style="opacity:.2;fill:#000;stroke:none;stroke-width:1.09687;stroke-linecap:round;stroke-miterlimit:4;stroke-dasharray:none;stroke-dashoffset:10"/><rect id="rect1828-6-2-8-1-9-7-6" width="3.5" height="5.5" x="-31.5" y="5.5" style="opacity:.2;fill:#000;stroke:none;stroke-width:1.09687;stroke-linecap:round;stroke-miterlimit:4;stroke-dasharray:none;stroke-dashoffset:10"/><rect style="opacity:.2;fill:#000;stroke:none;stroke-width:1.375;stroke-linecap:round;stroke-miterlimit:4;stroke-dasharray:none;stroke-dashoffset:10" id="rect1968" width="5.5" height="5.5" x="-37" y="11"/><rect id="rect1970" width="3.5" height="3.5" x="-31.5" y="16.5" style="opacity:.2;fill:#000;stroke:none;stroke-width:.875;stroke-linecap:round;stroke-miterlimit:4;stroke-dasharray:none;stroke-dashoffset:10"/></g><circle style="fill:#006dd0;fill-opacity:1;stroke:none;stroke-width:.5;stroke-linejoin:round;stroke-miterlimit:4;stroke-dasharray:none;stroke-dashoffset:0;stroke-opacity:1" id="path4927-9-1" cx="2.5" cy="2.5" r="2.5"/><ellipse style="fill:#006dd0;fill-opacity:1;stroke:none;stroke-width:.5;stroke-linejoin:round;stroke-miterlimit:4;stroke-dasharray:none;stroke-dashoffset:0;stroke-opacity:1" id="path4927-9-1-7" cx="2.344" cy="21.5" rx="2.344" ry="2.5"/><ellipse style="fill:#006dd0;fill-opacity:1;stroke:none;stroke-width:.5;stroke-linejoin:round;stroke-miterlimit:4;stroke-dasharray:none;stroke-dashoffset:0;stroke-opacity:1" id="path4927-9-1-7-5" cx="21.5" cy="21.5" rx="2.5" ry="2.5"/><path style="fill:#006dd0;fill-opacity:1;stroke:none;stroke-width:1;stroke-linecap:butt;stroke-linejoin:miter;stroke-miterlimit:4;stroke-dasharray:none;stroke-dashoffset:10;stroke-opacity:1" id="path4576" d="m 15.25,4.9999999 c -0.624976,0 -1.25,0.6666677 -1.25,1.3333333 V 11.666666 C 14,12.33333 14.625024,13 15.25,13 h 7.5 C 23.374977,13 24,12.33333 24,11.666666 V 6.3333332 C 24,5.6666676 23.374977,4.9999999 22.75,4.9999999 Z"/><path style="fill:none;fill-opacity:1;stroke:#006dd0;stroke-width:1.99999976;stroke-linecap:butt;stroke-linejoin:miter;stroke-miterlimit:4;stroke-dasharray:none;stroke-opacity:1" id="path4578" d="M 16.474161,5.5255602 V 3.7150206 c 0,0 -0.294554,-2.6975053 2.482535,-2.6975053 2.777091,0 2.516227,2.6975053 2.516227,2.6975053 v 1.8105396"/><path id="path4927-9-1-5" d="M 21,9.0000002 A 2,2.0000002 0 0 1 19,11 2,2.0000002 0 0 1 17,9.0000002 2,2.0000002 0 0 1 19,7 2,2.0000002 0 0 1 21,9.0000002 Z" style="fill:#505050;fill-opacity:1;stroke:none;stroke-width:.5;stroke-linejoin:round;stroke-miterlimit:4;stroke-dasharray:none;stroke-dashoffset:0;stroke-opacity:1"/></svg>