<svg xmlns="http://www.w3.org/2000/svg" xmlns:svg="http://www.w3.org/2000/svg" id="Capa_1" width="32" height="32" x="0" y="0" version="1.1" viewBox="0 0 32 32" xml:space="preserve"><metadata id="metadata3454"/><path style="fill:#3f3f3f;fill-opacity:1;stroke:none;stroke-width:1.00000012;stroke-opacity:1" id="path3418" d="M 26.971274,2.0228598 4.9944353,2.0114303 C 3,2.0103931 2,3 2.0114303,4.9944353 2.0075452,10.899451 2,16.31276 2,22 c 0,2 1,3 3.0172959,3 H 14 c -0.01031,0.83062 -0.734741,2.174072 -1.03233,2.965448 l -3.0058301,-0.0083 c -0.3844438,-0.0011 -0.9281622,0.598866 -0.9281622,1.05377 0,0.456206 0.576047,1.000908 0.9604919,1.000541 L 21.984285,30 c 0.384445,-3.66e-4 1.07317,-0.552516 1.07317,-1.008722 0,-0.454903 -0.6982,-1.006535 -1.082639,-1.008722 L 18.96767,27.965448 C 18.670676,27.174672 18.009801,25.83062 18,25 l 9.005565,-0.02286 C 29,24.972077 30,24 30,22 29.999998,15.431752 30,10.642404 30,5 30,3 29,2.0239149 26.971274,2.0228598 Z M 28,22 c -0.05056,0.656285 -0.444457,1.000006 -1,1 L 4.9812999,22.999777 C 4.4257561,22.999771 3.990751,22.652353 3.9944353,21.994134 L 4,21 H 28 Z M 4,19 3.9944353,4.9944353 C 3.9941738,4.3362065 4.4503217,4.0172959 5.0058656,4.0172959 l 22.0111294,0 c 0.555545,0 0.964896,0.3304416 0.965709,0.9885697 L 28,19 Z"/></svg>